<?xml version="1.0" encoding="UTF-8"?>
<svg width="42px" height="32px" viewBox="0 0 42 32" version="1.1" xmlns="http://www.w3.org/2000/svg" xmlns:xlink="http://www.w3.org/1999/xlink">
    <!-- Generator: Sketch 51.3 (57544) - http://www.bohemiancoding.com/sketch -->
    <title>mail</title>
    <desc>Created with Sketch.</desc>
    <defs></defs>
    <g id="Page-1" stroke="none" stroke-width="1" fill="none" fill-rule="evenodd">
        <g id="Desktop-HD" transform="translate(-1247.000000, -22.000000)" fill="#8E7D71" fill-rule="nonzero" stroke="#8E7D71">
            <g id="mail" transform="translate(1248.000000, 23.000000)">
                <path d="M31.6666406,11.7089063 L31.6666406,3.33335938 C31.6666406,1.495 30.1717188,0 28.3332813,0 L3.33328125,0 C1.49492188,0 0,1.49492188 0,3.33335938 L0,20 C0,21.8383594 1.49492188,23.3333594 3.33335938,23.3333594 L22.0220313,23.3333594 C23.1139062,27.175 26.6463281,30 30.8333594,30 C32.4446875,30 34.0291406,29.5760156 35.4175,28.7728125 C35.8154688,28.5425 35.9521875,28.0330469 35.7210156,27.6342969 C35.4907031,27.2355469 34.9804688,27.0979687 34.5825,27.3307813 C33.4480469,27.9867188 32.1516406,28.3333594 30.8332812,28.3333594 C26.6975,28.3333594 23.3332812,24.9690625 23.3332812,20.8333594 C23.3332812,19.2270815 23.8407823,17.7371695 24.7038703,16.5155376 C26.0629855,14.591819 28.303856,13.3333594 30.8332812,13.3333594 C34.9689844,13.3333594 38.3332812,16.6976563 38.3332812,20.8333594 L38.3332812,21.6667187 C38.3332812,22.5854688 37.5853906,23.3333594 36.6666406,23.3333594 C35.7478906,23.3333594 35,22.5854688 35,21.6667188 L35,18.3333594 C35,17.8727344 34.6272656,17.5 34.1666406,17.5 C33.9425,17.5 33.7410938,17.5907031 33.5914844,17.734375 C32.8549219,17.0780469 31.8950781,16.6666406 30.8332812,16.6666406 C28.5359375,16.6666406 26.6666406,18.5359375 26.6666406,20.8332813 C26.6666406,23.130625 28.5359375,25 30.8333594,25 C32.0752344,25 33.1794531,24.4428906 33.9435156,23.5779688 C34.5471875,24.4355469 35.5403906,25 36.6667187,25 C38.5050781,25 40,23.5050781 40,21.6666406 L40,20.8332813 C40,16.0600781 36.3315625,12.131875 31.6666406,11.7089063 Z M3.33335937,1.66664063 L28.3333594,1.66664063 C28.3680469,1.66664063 28.3971094,1.684375 28.4313281,1.68648438 L16.5185938,11.4648438 C16.0946094,11.7317969 15.4801562,11.6764063 15.2042969,11.5071875 L3.23640625,1.68632812 C3.27023437,1.68429688 3.29898437,1.66664063 3.33335937,1.66664063 Z M30,11.7089062 C25.3350781,12.131875 21.6666406,16.0600781 21.6666406,20.8333594 C21.6666406,21.1146094 21.6839062,21.3917969 21.7088281,21.6667188 L3.33335937,21.6667188 C2.41460937,21.6667188 1.66671875,20.9188281 1.66671875,20.0000781 L1.66671875,3.33335937 C1.66671875,3.09734375 1.71882812,2.87445313 1.80773437,2.67085937 L14.2204688,12.85 C14.7054687,13.1665625 15.2629687,13.3334375 15.8334375,13.3334375 C16.3819531,13.3334375 16.9182031,13.1788281 17.3902344,12.8858594 C17.4374219,12.860625 17.4821875,12.8305469 17.5245312,12.7955469 L29.8589062,2.67070312 C29.9478906,2.87445312 30.0000781,3.09734375 30.0000781,3.3334375 L30.0000781,11.7089062 L30,11.7089062 Z M30.8333594,23.3333594 C29.4547656,23.3333594 28.3333594,22.2119531 28.3333594,20.8333594 C28.3333594,19.4547656 29.4547656,18.3333594 30.8333594,18.3333594 C32.2119531,18.3333594 33.3333594,19.4547656 33.3333594,20.8333594 C33.3333594,22.2119531 32.2119531,23.3333594 30.8333594,23.3333594 Z" id="Shape"></path>
            </g>
        </g>
    </g>
</svg>