<?xml version="1.0" encoding="UTF-8"?>
<svg width="30px" height="30px" viewBox="0 0 30 30" version="1.1" xmlns="http://www.w3.org/2000/svg" xmlns:xlink="http://www.w3.org/1999/xlink">
    <!-- Generator: Sketch 51.3 (57544) - http://www.bohemiancoding.com/sketch -->
    <title>instagram-logo (1)</title>
    <desc>Created with Sketch.</desc>
    <defs></defs>
    <g id="Page-1" stroke="none" stroke-width="1" fill="none" fill-rule="evenodd">
        <g id="Home-Page" transform="translate(-22.000000, -23.000000)" fill="#8E7D71" fill-rule="nonzero">
            <g id="Group-7" transform="translate(-1.000000, 0.000000)">
                <g id="Group-5">
                    <g id="instagram-logo-(1)" transform="translate(23.000000, 23.000000)">
                        <path d="M21.7209071,0 L8.27873798,0 C3.71384463,0 0,3.71402207 0,8.27891543 L0,21.7210846 C0,26.2861554 3.71384463,30 8.27873798,30 L21.7209071,30 C26.2861554,30 30,26.2859779 30,21.7210846 L30,8.27891543 C30.0001774,3.71402207 26.2861554,0 21.7209071,0 Z M27.3384321,21.7210846 C27.3384321,24.818469 24.818469,27.3382546 21.7210846,27.3382546 L8.27873798,27.3382546 C5.18153104,27.3384321 2.6617454,24.818469 2.6617454,21.7210846 L2.6617454,8.27891543 C2.6617454,5.18170849 5.18153104,2.6617454 8.27873798,2.6617454 L21.7209071,2.6617454 C24.8182915,2.6617454 27.3382546,5.18170849 27.3382546,8.27891543 L27.3382546,21.7210846 L27.3384321,21.7210846 Z" id="Shape"></path>
                        <path d="M15.5,8 C11.3644377,8 8,11.3645149 8,15.5001722 C8,19.6356572 11.3644377,23 15.5,23 C19.6355623,23 23,19.6356572 23,15.5001722 C23,11.3645149 19.6355623,8 15.5,8 Z M15.5,20.4173018 C12.7885821,20.4173018 10.5824668,18.2114802 10.5824668,15.5 C10.5824668,12.7883476 12.7884099,10.5823539 15.5,10.5823539 C18.2115901,10.5823539 20.4175332,12.7883476 20.4175332,15.5 C20.4175332,18.2114802 18.2114179,20.4173018 15.5,20.4173018 Z" id="Shape"></path>
                        <path d="M23,5 C22.4745455,5 21.9583636,5.21272727 21.5872727,5.58545455 C21.2143636,5.95636364 21,6.47272727 21,7 C21,7.52563636 21.2145455,8.04181818 21.5872727,8.41454545 C21.9581818,8.78545455 22.4745455,9 23,9 C23.5272727,9 24.0418182,8.78545455 24.4145455,8.41454545 C24.7872727,8.04181818 25,7.52545455 25,7 C25,6.47272727 24.7872727,5.95636364 24.4145455,5.58545455 C24.0436364,5.21272727 23.5272727,5 23,5 Z" id="Shape"></path>
                    </g>
                </g>
            </g>
        </g>
    </g>
</svg>