<?xml version="1.0" encoding="UTF-8"?>
<svg width="30px" height="30px" viewBox="0 0 30 30" version="1.1" xmlns="http://www.w3.org/2000/svg" xmlns:xlink="http://www.w3.org/1999/xlink">
    <!-- Generator: Sketch 51.3 (57544) - http://www.bohemiancoding.com/sketch -->
    <title>linkedin</title>
    <desc>Created with Sketch.</desc>
    <defs></defs>
    <g id="Page-1" stroke="none" stroke-width="1" fill="none" fill-rule="evenodd">
        <g id="Home-Page" transform="translate(-75.000000, -23.000000)" fill="#8E7D71" fill-rule="nonzero">
            <g id="Group-7" transform="translate(-1.000000, 0.000000)">
                <g id="Group-5">
                    <g id="linkedin" transform="translate(76.000000, 23.000000)">
                        <path d="M25.6054688,0 L4.39453125,0 C1.97158816,0 0,1.97158816 0,4.39453125 L0,25.6054688 C0,28.0284118 1.97158816,30 4.39453125,30 L25.6054688,30 C28.0284118,30 30,28.0284118 30,25.6054688 L30,4.39453125 C30,1.97158816 28.0284118,0 25.6054688,0 Z M10.6054688,23.7890625 L7.08984375,23.7890625 L7.08984375,11.484375 L10.6054688,11.484375 L10.6054688,23.7890625 Z M10.6054688,9.7265625 L7.08984375,9.7265625 L7.08984375,6.2109375 L10.6054688,6.2109375 L10.6054688,9.7265625 Z M22.9101562,23.7890625 L19.3945312,23.7890625 L19.3945312,16.7578125 C19.3945312,15.7887268 18.6058044,15 17.6367188,15 C16.6676331,15 15.8789062,15.7887268 15.8789062,16.7578125 L15.8789062,23.7890625 L12.3632812,23.7890625 L12.3632812,11.484375 L15.8789062,11.484375 L15.8789062,12.1469879 C16.7999268,11.8606567 17.3982239,11.484375 18.515625,11.484375 C20.8998871,11.4868927 22.9101562,13.6257935 22.9101562,16.1535645 L22.9101562,23.7890625 Z" id="Shape"></path>
                    </g>
                </g>
            </g>
        </g>
    </g>
</svg>